<svg xmlns="http://www.w3.org/2000/svg" width="25" height="24" viewBox="0 0 25 24" fill="none">
  <mask id="mask0_4469_11909" style="mask-type:alpha" maskUnits="userSpaceOnUse" x="0" y="0" width="25" height="24">
    <rect x="0.166687" width="24" height="24" fill="#D9D9D9"/>
  </mask>
  <g mask="url(#mask0_4469_11909)">
    <path d="M6.16669 19H9.16669V14C9.16669 13.7167 9.26252 13.4792 9.45419 13.2875C9.64585 13.0958 9.88335 13 10.1667 13H14.1667C14.45 13 14.6875 13.0958 14.8792 13.2875C15.0709 13.4792 15.1667 13.7167 15.1667 14V19H18.1667V10L12.1667 5.5L6.16669 10V19ZM4.16669 19V10C4.16669 9.68333 4.23752 9.38333 4.37919 9.1C4.52085 8.81667 4.71669 8.58333 4.96669 8.4L10.9667 3.9C11.3167 3.63333 11.7167 3.5 12.1667 3.5C12.6167 3.5 13.0167 3.63333 13.3667 3.9L19.3667 8.4C19.6167 8.58333 19.8125 8.81667 19.9542 9.1C20.0959 9.38333 20.1667 9.68333 20.1667 10V19C20.1667 19.55 19.9709 20.0208 19.5792 20.4125C19.1875 20.8042 18.7167 21 18.1667 21H14.1667C13.8834 21 13.6459 20.9042 13.4542 20.7125C13.2625 20.5208 13.1667 20.2833 13.1667 20V15H11.1667V20C11.1667 20.2833 11.0709 20.5208 10.8792 20.7125C10.6875 20.9042 10.45 21 10.1667 21H6.16669C5.61669 21 5.14585 20.8042 4.75419 20.4125C4.36252 20.0208 4.16669 19.55 4.16669 19Z" fill="#AAABAB"/>
  </g>
</svg>