<svg xmlns="http://www.w3.org/2000/svg" width="25" height="24" viewBox="0 0 25 24" fill="none">
  <mask id="mask0_4468_3514" style="mask-type:alpha" maskUnits="userSpaceOnUse" x="0" y="0" width="25" height="24">
    <rect x="0.166687" width="24" height="24" fill="#D9D9D9"/>
  </mask>
  <g mask="url(#mask0_4468_3514)">
    <path d="M4.16669 19V10C4.16669 9.68333 4.23752 9.38333 4.37919 9.1C4.52085 8.81667 4.71669 8.58333 4.96669 8.4L10.9667 3.9C11.3167 3.63333 11.7167 3.5 12.1667 3.5C12.6167 3.5 13.0167 3.63333 13.3667 3.9L19.3667 8.4C19.6167 8.58333 19.8125 8.81667 19.9542 9.1C20.0959 9.38333 20.1667 9.68333 20.1667 10V19C20.1667 19.55 19.9709 20.0208 19.5792 20.4125C19.1875 20.8042 18.7167 21 18.1667 21H15.1667C14.8834 21 14.6459 20.9042 14.4542 20.7125C14.2625 20.5208 14.1667 20.2833 14.1667 20V15C14.1667 14.7167 14.0709 14.4792 13.8792 14.2875C13.6875 14.0958 13.45 14 13.1667 14H11.1667C10.8834 14 10.6459 14.0958 10.4542 14.2875C10.2625 14.4792 10.1667 14.7167 10.1667 15V20C10.1667 20.2833 10.0709 20.5208 9.87919 20.7125C9.68752 20.9042 9.45002 21 9.16669 21H6.16669C5.61669 21 5.14585 20.8042 4.75419 20.4125C4.36252 20.0208 4.16669 19.55 4.16669 19Z" fill="#7A5CF5"/>
  </g>
</svg>