<svg xmlns="http://www.w3.org/2000/svg" width="25" height="24" viewBox="0 0 25 24" fill="none">
  <mask id="mask0_4468_5619" style="mask-type:alpha" maskUnits="userSpaceOnUse" x="0" y="0" width="25" height="24">
    <rect x="0.500061" width="24" height="24" fill="#D9D9D9"/>
  </mask>
  <g mask="url(#mask0_4468_5619)">
    <path d="M12.5001 21.325C12.2667 21.325 12.0334 21.2833 11.8001 21.2C11.5667 21.1167 11.3584 20.9917 11.1751 20.825C10.0917 19.825 9.13339 18.85 8.30006 17.9C7.46673 16.95 6.77089 16.0292 6.21256 15.1375C5.65423 14.2458 5.22923 13.3875 4.93756 12.5625C4.64589 11.7375 4.50006 10.95 4.50006 10.2C4.50006 8.48333 4.93339 6.94167 5.80006 5.575C6.66673 4.20833 7.89173 3.20833 9.47506 2.575C9.90839 2.39167 10.3876 2.25 10.9126 2.15C11.4376 2.05 11.9584 1.99167 12.4751 1.975C12.7584 1.975 12.9959 2.06667 13.1876 2.25C13.3792 2.43333 13.4751 2.66667 13.4751 2.95C13.4751 3.23333 13.3792 3.47917 13.1876 3.6875C12.9959 3.89583 12.7584 4 12.4751 4C12.0751 4 11.6834 4.0375 11.3001 4.1125C10.9167 4.1875 10.5334 4.3 10.1501 4.45C8.98339 4.93333 8.08339 5.7 7.45006 6.75C6.81673 7.8 6.50006 8.95 6.50006 10.2C6.50006 11.3833 6.99173 12.7375 7.97506 14.2625C8.95839 15.7875 10.4667 17.4833 12.5001 19.35C13.5167 18.4167 14.4001 17.5292 15.1501 16.6875C15.9001 15.8458 16.5251 15.0417 17.0251 14.275C17.3584 13.7583 17.6501 13.2292 17.9001 12.6875C18.1501 12.1458 18.3251 11.5833 18.4251 11C18.4917 10.6167 18.6376 10.35 18.8626 10.2C19.0876 10.05 19.3251 9.99167 19.5751 10.025C19.8251 10.0583 20.0376 10.1583 20.2126 10.325C20.3876 10.4917 20.4584 10.7167 20.4251 11C20.2917 12.0333 19.9959 13.0042 19.5376 13.9125C19.0792 14.8208 18.5417 15.6917 17.9251 16.525C17.2084 17.475 16.4709 18.3208 15.7126 19.0625C14.9542 19.8042 14.3251 20.3917 13.8251 20.825C13.6417 20.9917 13.4334 21.1167 13.2001 21.2C12.9667 21.2833 12.7334 21.325 12.5001 21.325ZM12.5001 12C13.0501 12 13.5209 11.8042 13.9126 11.4125C14.3042 11.0208 14.5001 10.55 14.5001 10C14.5001 9.45 14.3042 8.97917 13.9126 8.5875C13.5209 8.19583 13.0501 8 12.5001 8C11.9501 8 11.4792 8.19583 11.0876 8.5875C10.6959 8.97917 10.5001 9.45 10.5001 10C10.5001 10.55 10.6959 11.0208 11.0876 11.4125C11.4792 11.8042 11.9501 12 12.5001 12ZM18.5001 5V7C18.5001 7.28333 18.5959 7.52083 18.7876 7.7125C18.9792 7.90417 19.2167 8 19.5001 8C19.7834 8 20.0209 7.90417 20.2126 7.7125C20.4042 7.52083 20.5001 7.28333 20.5001 7V5H22.5001C22.7834 5 23.0209 4.90417 23.2126 4.7125C23.4042 4.52083 23.5001 4.28333 23.5001 4C23.5001 3.71667 23.4042 3.47917 23.2126 3.2875C23.0209 3.09583 22.7834 3 22.5001 3H20.5001V1C20.5001 0.716667 20.4042 0.479167 20.2126 0.2875C20.0209 0.0958333 19.7834 0 19.5001 0C19.2167 0 18.9792 0.0958333 18.7876 0.2875C18.5959 0.479167 18.5001 0.716667 18.5001 1V3H16.5001C16.2167 3 15.9792 3.09583 15.7876 3.2875C15.5959 3.47917 15.5001 3.71667 15.5001 4C15.5001 4.28333 15.5959 4.52083 15.7876 4.7125C15.9792 4.90417 16.2167 5 16.5001 5H18.5001Z" fill="#AAABAB"/>
  </g>
</svg>