<svg xmlns="http://www.w3.org/2000/svg" width="24" height="24" viewBox="0 0 24 24" fill="none">
  <mask id="mask0_3788_23566" style="mask-type:alpha" maskUnits="userSpaceOnUse" x="0" y="0" width="24" height="24">
    <rect width="24" height="24" fill="#D9D9D9"/>
  </mask>
  <g mask="url(#mask0_3788_23566)">
    <path d="M12 12C12.55 12 13.0208 11.8042 13.4125 11.4125C13.8042 11.0208 14 10.55 14 10C14 9.45 13.8042 8.97917 13.4125 8.5875C13.0208 8.19583 12.55 8 12 8C11.45 8 10.9792 8.19583 10.5875 8.5875C10.1958 8.97917 10 9.45 10 10C10 10.55 10.1958 11.0208 10.5875 11.4125C10.9792 11.8042 11.45 12 12 12ZM12 21.325C11.7667 21.325 11.5333 21.2833 11.3 21.2C11.0667 21.1167 10.8583 20.9917 10.675 20.825C9.59167 19.825 8.63333 18.85 7.8 17.9C6.96667 16.95 6.27083 16.0292 5.7125 15.1375C5.15417 14.2458 4.72917 13.3875 4.4375 12.5625C4.14583 11.7375 4 10.95 4 10.2C4 7.7 4.80417 5.70833 6.4125 4.225C8.02083 2.74167 9.88333 2 12 2C12.6667 2 13.1667 2.17917 13.5 2.5375C13.8333 2.89583 14 3.34167 14 3.875V4C14 4.55 14.1958 5.02083 14.5875 5.4125C14.9792 5.80417 15.45 6 16 6H17V7C17 7.28333 17.05 7.54583 17.15 7.7875C17.25 8.02917 17.3917 8.24167 17.575 8.425C17.725 8.575 17.8917 8.69583 18.075 8.7875C18.2583 8.87917 18.45 8.94167 18.65 8.975C19.15 9.05833 19.5 9.24583 19.7 9.5375C19.9 9.82917 20 10.1917 20 10.625C20 11.1083 19.8958 11.6458 19.6875 12.2375C19.4792 12.8292 19.2333 13.4083 18.95 13.975C18.6667 14.5417 18.3833 15.0542 18.1 15.5125C17.8167 15.9708 17.5917 16.3083 17.425 16.525C16.7083 17.475 15.9708 18.3208 15.2125 19.0625C14.4542 19.8042 13.825 20.3917 13.325 20.825C13.1417 20.9917 12.9333 21.1167 12.7 21.2C12.4667 21.2833 12.2333 21.325 12 21.325ZM18 5H16C15.7167 5 15.4792 4.90417 15.2875 4.7125C15.0958 4.52083 15 4.28333 15 4C15 3.71667 15.0958 3.47917 15.2875 3.2875C15.4792 3.09583 15.7167 3 16 3H18V1C18 0.716667 18.0958 0.479167 18.2875 0.2875C18.4792 0.0958333 18.7167 0 19 0C19.2833 0 19.5208 0.0958333 19.7125 0.2875C19.9042 0.479167 20 0.716667 20 1V3H22C22.2833 3 22.5208 3.09583 22.7125 3.2875C22.9042 3.47917 23 3.71667 23 4C23 4.28333 22.9042 4.52083 22.7125 4.7125C22.5208 4.90417 22.2833 5 22 5H20V7C20 7.28333 19.9042 7.52083 19.7125 7.7125C19.5208 7.90417 19.2833 8 19 8C18.7167 8 18.4792 7.90417 18.2875 7.7125C18.0958 7.52083 18 7.28333 18 7V5Z" fill="#7A5CF5"/>
  </g>
</svg>