<svg xmlns="http://www.w3.org/2000/svg" width="25" height="24" viewBox="0 0 25 24" fill="none">
  <mask id="mask0_4468_5624" style="mask-type:alpha" maskUnits="userSpaceOnUse" x="0" y="0" width="25" height="24">
    <rect x="0.833374" width="24" height="24" fill="#D9D9D9"/>
  </mask>
  <g mask="url(#mask0_4468_5624)">
    <path d="M6.68337 17.1C7.53337 16.45 8.48337 15.9375 9.53337 15.5625C10.5834 15.1875 11.6834 15 12.8334 15C13.9834 15 15.0834 15.1875 16.1334 15.5625C17.1834 15.9375 18.1334 16.45 18.9834 17.1C19.5667 16.4167 20.0209 15.6417 20.3459 14.775C20.6709 13.9083 20.8334 12.9833 20.8334 12C20.8334 9.78333 20.0542 7.89583 18.4959 6.3375C16.9375 4.77917 15.05 4 12.8334 4C10.6167 4 8.72921 4.77917 7.17087 6.3375C5.61254 7.89583 4.83337 9.78333 4.83337 12C4.83337 12.9833 4.99587 13.9083 5.32087 14.775C5.64587 15.6417 6.10004 16.4167 6.68337 17.1ZM12.8334 13C11.85 13 11.0209 12.6625 10.3459 11.9875C9.67087 11.3125 9.33337 10.4833 9.33337 9.5C9.33337 8.51667 9.67087 7.6875 10.3459 7.0125C11.0209 6.3375 11.85 6 12.8334 6C13.8167 6 14.6459 6.3375 15.3209 7.0125C15.9959 7.6875 16.3334 8.51667 16.3334 9.5C16.3334 10.4833 15.9959 11.3125 15.3209 11.9875C14.6459 12.6625 13.8167 13 12.8334 13ZM12.8334 22C11.45 22 10.15 21.7375 8.93337 21.2125C7.71671 20.6875 6.65837 19.975 5.75837 19.075C4.85837 18.175 4.14587 17.1167 3.62087 15.9C3.09587 14.6833 2.83337 13.3833 2.83337 12C2.83337 10.6167 3.09587 9.31667 3.62087 8.1C4.14587 6.88333 4.85837 5.825 5.75837 4.925C6.65837 4.025 7.71671 3.3125 8.93337 2.7875C10.15 2.2625 11.45 2 12.8334 2C14.2167 2 15.5167 2.2625 16.7334 2.7875C17.95 3.3125 19.0084 4.025 19.9084 4.925C20.8084 5.825 21.5209 6.88333 22.0459 8.1C22.5709 9.31667 22.8334 10.6167 22.8334 12C22.8334 13.3833 22.5709 14.6833 22.0459 15.9C21.5209 17.1167 20.8084 18.175 19.9084 19.075C19.0084 19.975 17.95 20.6875 16.7334 21.2125C15.5167 21.7375 14.2167 22 12.8334 22ZM12.8334 20C13.7167 20 14.55 19.8708 15.3334 19.6125C16.1167 19.3542 16.8334 18.9833 17.4834 18.5C16.8334 18.0167 16.1167 17.6458 15.3334 17.3875C14.55 17.1292 13.7167 17 12.8334 17C11.95 17 11.1167 17.1292 10.3334 17.3875C9.55004 17.6458 8.83337 18.0167 8.18337 18.5C8.83337 18.9833 9.55004 19.3542 10.3334 19.6125C11.1167 19.8708 11.95 20 12.8334 20ZM12.8334 11C13.2667 11 13.625 10.8583 13.9084 10.575C14.1917 10.2917 14.3334 9.93333 14.3334 9.5C14.3334 9.06667 14.1917 8.70833 13.9084 8.425C13.625 8.14167 13.2667 8 12.8334 8C12.4 8 12.0417 8.14167 11.7584 8.425C11.475 8.70833 11.3334 9.06667 11.3334 9.5C11.3334 9.93333 11.475 10.2917 11.7584 10.575C12.0417 10.8583 12.4 11 12.8334 11Z" fill="#AAABAB"/>
  </g>
</svg>